<svg width="131" height="26" viewBox="0 0 131 26" fill="none" xmlns="http://www.w3.org/2000/svg">
<path d="M0.304 25V1.16H4.464L13.392 13.288H11.408L20.144 1.16H24.304V25H19.92V6.12L21.616 6.536L12.56 18.6H12.048L3.216 6.536L4.656 6.12V25H0.304ZM39.6505 25.384C37.9012 25.384 36.2692 25.0747 34.7545 24.456C33.2398 23.8373 31.9172 22.9733 30.7865 21.864C29.6558 20.7547 28.7705 19.4533 28.1305 17.96C27.5118 16.4453 27.2025 14.8133 27.2025 13.064C27.2025 11.2933 27.5118 9.66133 28.1305 8.168C28.7492 6.67467 29.6238 5.37333 30.7545 4.264C31.8852 3.15467 33.2078 2.30133 34.7225 1.704C36.2372 1.08533 37.8798 0.775999 39.6505 0.775999C41.4212 0.775999 43.0638 1.08533 44.5785 1.704C46.0932 2.32266 47.4158 3.18667 48.5465 4.296C49.6772 5.384 50.5518 6.67467 51.1705 8.168C51.8105 9.66133 52.1305 11.2933 52.1305 13.064C52.1305 14.8133 51.8105 16.4453 51.1705 17.96C50.5305 19.4533 49.6452 20.7547 48.5145 21.864C47.3838 22.9733 46.0612 23.8373 44.5465 24.456C43.0532 25.0747 41.4212 25.384 39.6505 25.384ZM39.6505 21.416C40.8238 21.416 41.9012 21.2133 42.8825 20.808C43.8638 20.3813 44.7172 19.7947 45.4425 19.048C46.1892 18.3013 46.7545 17.416 47.1385 16.392C47.5438 15.368 47.7465 14.2587 47.7465 13.064C47.7465 11.8693 47.5438 10.7707 47.1385 9.768C46.7545 8.744 46.1892 7.85867 45.4425 7.112C44.7172 6.344 43.8638 5.75733 42.8825 5.352C41.9012 4.94667 40.8238 4.744 39.6505 4.744C38.4985 4.744 37.4318 4.94667 36.4505 5.352C35.4692 5.75733 34.6052 6.344 33.8585 7.112C33.1332 7.85867 32.5678 8.744 32.1625 9.768C31.7572 10.7707 31.5545 11.8693 31.5545 13.064C31.5545 14.2587 31.7572 15.368 32.1625 16.392C32.5678 17.416 33.1332 18.3013 33.8585 19.048C34.6052 19.7947 35.4692 20.3813 36.4505 20.808C37.4318 21.2133 38.4985 21.416 39.6505 21.416ZM55.0403 25V1.16H63.9043C65.5256 1.16 66.9549 1.45867 68.1923 2.056C69.4509 2.632 70.4323 3.48533 71.1363 4.616C71.8403 5.72533 72.1923 7.08 72.1923 8.68C72.1923 10.3227 71.7976 11.72 71.0083 12.872C70.2403 14.024 69.1949 14.8773 67.8723 15.432L73.3443 25H68.4163L62.5603 14.536L65.3763 16.2H59.3923V25H55.0403ZM59.3923 12.36H63.9683C64.7576 12.36 65.4403 12.2107 66.0163 11.912C66.5923 11.592 67.0403 11.1547 67.3603 10.6C67.6803 10.0453 67.8403 9.40533 67.8403 8.68C67.8403 7.93333 67.6803 7.29333 67.3603 6.76C67.0403 6.20533 66.5923 5.77867 66.0163 5.48C65.4403 5.16 64.7576 5 63.9683 5H59.3923V12.36ZM75.2365 25V1.16H91.0765V5H79.5885V11.112H90.4365V14.952H79.5885V21.16H91.0765V25H75.2365ZM93.3078 25V1.16H96.6998L109.82 18.824L108.06 19.176V1.16H112.412V25H108.988L96.0598 7.208L97.6598 6.856V25H93.3078ZM120.29 25V5H114.114V1.16H130.754V5H124.674V25H120.29Z" fill="#3563E9"/>
</svg>
